<?xml version="1.0" standalone="no"?>
<!DOCTYPE svg PUBLIC "-//W3C//DTD SVG 20010904//EN"
 "http://www.w3.org/TR/2001/REC-SVG-20010904/DTD/svg10.dtd">
<svg version="1.0" xmlns="http://www.w3.org/2000/svg"
 width="3333.000000pt" height="437.000000pt" viewBox="0 0 3333.000000 437.000000"
 preserveAspectRatio="xMidYMid meet">

<g transform="translate(0.000000,437.000000) scale(0.100000,-0.100000)"
fill="#000000" stroke="none">
<path d="M22062 2203 l3 -2168 1932 -3 c1665 -2 1932 -4 1935 -16 6 -29 203
72 325 166 71 54 181 172 233 248 61 90 125 231 155 340 14 52 25 96 25 98 0
1 -848 2 -1885 2 l-1885 0 0 1750 0 1750 -420 0 -420 0 2 -2167z"/>
<path d="M0 4329 c0 -23 74 -196 113 -264 153 -269 401 -483 659 -569 l77 -26
690 0 c627 0 694 -2 726 -17 l35 -17 0 -1718 0 -1718 418 2 417 3 3 1717 2
1718 30 15 c25 13 120 15 719 15 l690 0 82 30 c331 121 601 384 733 716 20 50
36 99 36 108 0 15 -215 16 -2715 16 -2006 0 -2715 -3 -2715 -11z"/>
<path d="M7505 4318 c89 -295 362 -615 645 -758 41 -20 110 -49 154 -64 l78
-26 1635 0 1634 0 75 25 c281 95 555 331 690 597 35 70 84 205 84 232 0 15
-232 16 -2501 16 l-2500 0 6 -22z"/>
<path d="M14930 3055 l0 -1285 1935 0 1935 0 0 -450 0 -450 -1525 0 -1526 0
-97 -36 c-134 -50 -309 -142 -422 -222 -123 -87 -295 -253 -379 -367 -64 -84
-151 -223 -151 -238 0 -4 1118 -7 2485 -7 l2485 0 -2 1303 -3 1302 -1947 3
-1948 2 0 430 0 430 1506 0 1506 0 101 40 c294 115 554 326 691 561 29 50 79
184 89 237 l7 32 -2370 0 -2370 0 0 -1285z"/>
<path d="M28330 4337 c0 -2 13 -42 29 -89 113 -335 375 -618 673 -727 145 -54
46 -51 1811 -51 1635 0 1635 0 1703 21 325 100 645 406 755 723 16 44 29 91
29 104 l0 22 -2500 0 c-1375 0 -2500 -1 -2500 -3z"/>
<path d="M7500 2596 c0 -7 29 -71 65 -142 172 -342 455 -601 763 -698 l83 -26
1602 0 c1563 0 1604 0 1673 20 290 80 588 330 728 609 41 80 86 206 86 237 0
12 -368 14 -2500 14 -2092 0 -2500 -2 -2500 -14z"/>
<path d="M28465 2598 c-3 -7 -4 -593 -3 -1303 l3 -1290 435 0 435 0 3 863 2
862 1510 0 1510 0 2 -862 3 -863 435 0 435 0 0 1300 0 1300 -2383 3 c-1901 2
-2384 0 -2387 -10z"/>
<path d="M7506 848 c20 -66 80 -192 128 -272 172 -287 420 -489 682 -556 75
-19 119 -20 1701 -20 l1624 0 77 26 c176 59 333 158 478 303 90 90 196 238
238 332 23 53 66 182 66 200 0 5 -1037 9 -2501 9 l-2500 0 7 -22z"/>
</g>
</svg>
